# Blender v2.79 (sub 0) OBJ File: 'Laser_Base.blend'
# www.blender.org
mtllib Laser_Base.mtl
o Cube_Cube.001
v 0.000000 0.000000 0.732810
v 0.000000 0.000000 -1.952059
v -0.297533 -0.297533 0.000000
v -0.297533 0.297533 0.000000
v 0.297533 -0.297533 0.000000
v 0.297533 0.297533 0.000000
vt 0.540257 0.891113
vt 0.440558 0.591566
vt 0.999906 0.000094
vt 0.236802 0.283611
vt 0.350324 0.429885
vt 0.000094 0.661611
vt 0.000094 0.074715
vn -0.7007 -0.7007 0.1339
vn -0.7007 0.7007 0.1339
vn 0.0000 0.0000 -1.0000
vn 0.7007 -0.7007 0.1339
vn 0.7007 0.7007 0.1339
vn 0.0000 0.0000 1.0000
usemtl None
s 1
f 3/1/1 4/2/2 2/3/3
f 5/4/4 6/5/5 1/6/6
f 3/7/1 5/4/4 1/6/6
f 6/5/5 4/2/2 1/6/6
f 2/3/3 4/2/2 6/5/5
f 2/3/3 5/4/4 3/7/1
f 2/3/3 6/5/5 5/4/4
f 1/6/6 4/2/2 3/1/1
